<?xml version="1.0" encoding="UTF-8"?>
<svg width="24px" height="24px" viewBox="0 0 24 24" version="1.1" xmlns="http://www.w3.org/2000/svg" xmlns:xlink="http://www.w3.org/1999/xlink">
    <g stroke="none" stroke-width="1" fill-rule="evenodd">       
        <rect opacity="0" x="0" y="0" width="24" height="24" fill="currentColor"></rect>
        <path d="M5.4484375,9.9484375 L5.4484375,10.9960938 C5.4484375,11.0171875 5.4296875,11.0359375 5.40859375,11.0359375 L4.36328125,11.0359375 C4.3421875,11.0359375 4.3234375,11.0171875 4.3234375,10.9960938 L4.3234375,9.9484375 C4.3234375,9.92734375 4.3421875,9.90859375 4.36328125,9.90859375 L5.40859375,9.90859375 C5.4296875,9.90859375 5.4484375,9.92734375 5.4484375,9.9484375 Z M12.5640625,9.9484375 L12.5640625,10.9960938 C12.5640625,11.0171875 12.5453125,11.0359375 12.5242188,11.0359375 L6.7,11.0359375 C6.67890625,11.0359375 6.66015625,11.0171875 6.66015625,10.9960938 L6.66015625,9.9484375 C6.66015625,9.92734375 6.67890625,9.90859375 6.7,9.90859375 L12.5242187,9.90859375 C12.5453125,9.90859375 12.5640625,9.92734375 12.5640625,9.9484375 Z M5.3875,12.5078125 C5.40859375,12.5078125 5.425,12.5242188 5.42734375,12.5476563 L5.42734375,13.5929688 C5.42734375,13.6140625 5.40859375,13.6328125 5.3875,13.6328125 L4.3421875,13.6328125 C4.32109375,13.6328125 4.30234375,13.6140625 4.30234375,13.5929688 L4.30234375,12.5476563 C4.30234375,12.5265625 4.32109375,12.5078125 4.3421875,12.5078125 L5.3875,12.5078125 Z M12.5078125,12.5078125 C12.53125,12.5078125 12.5476563,12.5242188 12.5476563,12.5476563 L12.5476563,13.5929688 C12.5476563,13.6140625 12.5289063,13.6328125 12.5078125,13.6328125 L6.68359375,13.6328125 C6.6625,13.6328125 6.64375,13.6140625 6.64375,13.5929688 L6.64375,12.5476563 C6.64375,12.5265625 6.6625,12.5078125 6.68359375,12.5078125 L12.5078125,12.5078125 Z M21.9507812,16.9328125 C22.0023438,17.021875 21.971875,17.1367188 21.8828125,17.1859375 L21.3671875,17.4835938 C21.353125,17.490625 21.34375,17.509375 21.3484375,17.5257813 C21.3789062,17.6640625 21.3953125,17.8070313 21.3953125,17.9523438 C21.3953125,18.1 21.3789062,18.240625 21.3484375,18.3789063 C21.34375,18.3953125 21.353125,18.4117188 21.3671875,18.4210938 L21.8828125,18.71875 C21.971875,18.7703125 22.0023438,18.8851563 21.9507812,18.9742188 L21.5757812,19.6234375 C21.5242188,19.7125 21.409375,19.7429688 21.3203125,19.6914063 L20.8046875,19.39375 C20.7882813,19.384375 20.7695312,19.3867188 20.7578125,19.3984375 C20.546875,19.590625 20.2960938,19.7382813 20.0195312,19.825 C20.003125,19.8296875 19.9914063,19.8460938 19.9914063,19.8625 L19.9914063,20.6078125 C19.9914063,20.6289063 19.9726562,20.6476563 19.9515625,20.6476563 L18.90625,20.6476563 C18.8851563,20.6476563 18.8664063,20.6289063 18.8664063,20.6078125 L18.8664063,19.8625 C18.8664063,19.8460938 18.8546875,19.8296875 18.8382813,19.825 C18.55,19.7359375 18.2921875,19.58125 18.0789063,19.3796875 L17.5375,19.69375 C17.4484375,19.7453125 17.3335938,19.7148438 17.2820313,19.6257813 L16.9070312,18.9765625 C16.8554688,18.8875 16.8859375,18.7726563 16.975,18.7210938 L17.5164062,18.409375 C17.48125,18.2640625 17.4625,18.1117188 17.4625,17.9546875 C17.4625,17.7976563 17.48125,17.6453125 17.5164062,17.5 L16.975,17.1882813 C16.8859375,17.1367188 16.8554687,17.021875 16.9070312,16.9328125 L17.2820312,16.2835938 C17.3335937,16.1945313 17.4484375,16.1640625 17.5375,16.215625 L18.053125,16.5132813 C18.0695312,16.5226563 18.0882812,16.5203125 18.1,16.5085938 C18.3085937,16.3164063 18.5617187,16.16875 18.8382812,16.0820313 C18.8546875,16.0773438 18.8664062,16.0609375 18.8664062,16.0445313 L18.8664062,15.2992188 C18.8664062,15.278125 18.8851562,15.259375 18.90625,15.259375 L19.9515625,15.259375 C19.9726562,15.259375 19.9914062,15.278125 19.9914062,15.2992188 L19.9914062,16.0445313 C19.9914062,16.0609375 20.003125,16.0773438 20.0195312,16.0820313 C20.2984375,16.16875 20.5492188,16.3164063 20.7578125,16.5085938 C20.771875,16.5203125 20.790625,16.5226563 20.8046875,16.5132813 L21.3203125,16.215625 C21.409375,16.1640625 21.5242187,16.1945313 21.5757812,16.2835938 L21.9507812,16.9328125 Z M20.2585938,18.0882813 C20.265625,18.04375 20.2703125,18.0015625 20.2585938,17.9546875 C20.2585938,17.9101563 20.25625,17.865625 20.2492188,17.8234375 L20.2421875,17.78125 C20.2328125,17.7367188 20.2210938,17.6945313 20.2046875,17.6523438 C20.171875,17.5703125 20.1273438,17.4953125 20.0734375,17.4273438 C20.0476563,17.3945313 20.0171875,17.3617188 19.984375,17.3335938 C19.9421875,17.29375 19.8953125,17.2609375 19.84375,17.2304688 C19.7921875,17.2 19.7382813,17.1765625 19.6820313,17.1578125 C19.6445313,17.1460938 19.6046875,17.1367188 19.5625,17.1296875 L19.5203125,17.1226563 C19.4898438,17.1203125 19.4570313,17.1179688 19.4242188,17.1179688 C19.3890625,17.1179688 19.35625,17.1203125 19.3234375,17.125 C19.3117188,17.1273438 19.3023438,17.1273438 19.290625,17.1296875 C19.2460938,17.1367188 19.2039063,17.1460938 19.1640625,17.1601563 C19.0515625,17.1976563 18.9484375,17.2585938 18.8617188,17.3359375 C18.8453125,17.35 18.8289063,17.3640625 18.8148438,17.3804688 C18.75625,17.4414063 18.7046875,17.5140625 18.6671875,17.59375 C18.6390625,17.6523438 18.6179688,17.715625 18.6039063,17.78125 L18.596875,17.8234375 C18.5921875,17.8515625 18.5898438,17.8796875 18.5875,17.9101563 C18.5851563,17.9242188 18.5851563,17.940625 18.5851563,17.9546875 C18.5851563,17.96875 18.5875,17.9851563 18.5875,17.9992188 C18.5898438,18.0273438 18.5921875,18.053125 18.596875,18.08125 C18.5992188,18.0953125 18.6039063,18.1117188 18.60625,18.128125 C18.6109375,18.1515625 18.615625,18.1726563 18.6226563,18.19375 C18.6414063,18.2570313 18.6671875,18.3179688 18.7,18.3742188 C18.7445313,18.4492188 18.7984375,18.5171875 18.8640625,18.5757813 C18.9507813,18.653125 19.0539063,18.7140625 19.16875,18.7515625 C19.2296875,18.7703125 19.2953125,18.784375 19.3609375,18.7890625 C19.384375,18.7914063 19.4054688,18.7914063 19.4289063,18.7914063 C19.4757813,18.7914063 19.5179688,18.7890625 19.5625,18.7820313 C19.6070313,18.775 19.6492188,18.765625 19.6890625,18.7515625 L19.73125,18.7375 C19.759375,18.728125 19.7875,18.7164063 19.8132813,18.7023438 C19.8789063,18.6695313 19.9398438,18.6273438 19.99375,18.578125 C20.0171875,18.5570313 20.0382813,18.5335938 20.059375,18.5101563 C20.134375,18.4257813 20.1929688,18.3273438 20.228125,18.2171875 C20.2375,18.1890625 20.2445313,18.1609375 20.2515625,18.1304688 L20.2585938,18.0882813 Z M2,20 L15.5,20 L15.5,21 L1,21 L1,5 C1,4.44771525 1.44771525,4 2,4 L8.3177801,4 C8.53063725,4 8.73660523,4.07544335 8.89910258,4.21293073 L11.6474382,6.53827014 L20.9955286,6.53827014 C21.5478133,6.53827014 21.9955286,6.98598539 21.9955286,7.53827014 C21.9955286,7.54123781 21.9955154,7.54420547 21.9954889,7.54717302 L21.930601,14.8353061 L20.9306407,14.8264033 L20.9919356,7.94183129 C20.9939023,7.72092615 20.8164177,7.54025277 20.5955126,7.538286 C20.5943256,7.53827543 20.5931385,7.53827014 20.5919514,7.53827014 L11.6108095,7.53827014 C11.3979524,7.53827014 11.1919844,7.4628268 11.029487,7.32533942 L8.28115143,5 L2,5 L2,20 Z" fill="currentColor" fill-rule="nonzero"></path>        
    </g>
</svg>