<?xml version="1.0" encoding="UTF-8"?>
<svg width="24px" height="24px" viewBox="0 0 24 24" version="1.1" xmlns="http://www.w3.org/2000/svg" xmlns:xlink="http://www.w3.org/1999/xlink">
    <rect fill="currentColor" opacity="0" x="0" y="0" width="24" height="24"></rect>
    <path d="M12,10.9019608 C13.6676834,10.9019608 15.0196078,9.5500363 15.0196078,7.88235294 C15.0196078,6.21466958 13.6676834,4.8627451 12,4.8627451 C10.3323166,4.8627451 8.98039216,6.21466958 8.98039216,7.88235294 C8.98039216,9.5500363 10.3323166,10.9019608 12,10.9019608 Z M12,11.7647059 C9.85583568,11.7647059 8.11764706,10.0265173 8.11764706,7.88235294 C8.11764706,5.73818862 9.85583568,4 12,4 C14.1441643,4 15.8823529,5.73818862 15.8823529,7.88235294 C15.8823529,10.0265173 14.1441643,11.7647059 12,11.7647059 Z M18.4705882,18.2352941 C18.4705882,14.6616869 15.5736072,11.7647059 12,11.7647059 C8.4263928,11.7647059 5.52941176,14.6616869 5.52941176,18.2352941 C5.52941176,18.6775807 5.57372577,19.1137801 5.66079056,19.539384 C8.30830799,19.5392528 10.1412025,19.5375184 12.2404877,19.531233 C14.8651111,19.5233746 16.952875,19.5096699 18.3493489,19.4887832 C18.4297186,19.0792034 18.4705882,18.6600471 18.4705882,18.2352941 Z M18.7036854,20.3459445 C17.3118128,20.3700177 15.093623,20.3854394 12.2430708,20.3939742 C10.0532868,20.4005306 8.15350895,20.4021373 5.31805795,20.4021373 L4.98417309,20.4021373 L4.90046307,20.0789165 C4.74574091,19.4815038 4.66666667,18.8634196 4.66666667,18.2352941 C4.66666667,14.185206 7.94991183,10.9019608 12,10.9019608 C16.0500882,10.9019608 19.3333333,14.185206 19.3333333,18.2352941 C19.3333333,18.8424825 19.2594435,19.4403284 19.1147199,20.0192543 L19.034482,20.3402232 L18.7036854,20.3459445 Z M1.92154072,17.7397753 C1.92159711,17.7432147 1.92165294,17.7466227 1.92170822,17.75 L3.45063378,17.75 L3.30202636,18.6666667 L2.04160969,18.6666667 L1.46869303,18.6666667 C1.21556252,18.6666667 1.01035969,18.4614638 1.01035969,18.2083333 C1.01035969,18.0961824 1.00938674,18.0225621 1.00499721,17.7548006 C0.987206971,16.6695963 1.01241238,16.0562646 1.15441799,15.3273025 C1.54179874,13.338748 2.71837855,11.9897777 4.94252464,11.497683 C2.47477827,9.04363557 4.00151641,4.91666667 6.96869303,4.91666667 L7.97419042,4.91666667 L7.42702636,5.83333333 L6.96869303,5.83333333 C4.61418506,5.83333333 3.45859207,9.63028173 6.29494254,11.4030008 C6.66732288,11.6357385 6.53084714,12.2083609 6.09352191,12.2481177 C3.59010378,12.4757012 2.42384129,13.6049395 2.05417122,15.5025791 C1.92798704,16.1503246 1.90475256,16.7156971 1.92154072,17.7397753 Z M22.0709932,17.0567312 C21.97355,13.9934002 21.0160101,12.5580536 17.9127275,12.2477254 C17.4937824,12.2058309 17.3482488,11.6686366 17.6887546,11.420996 C19.1227647,10.3780796 19.5109109,8.97597715 19.1632947,7.79620727 C18.8148913,6.61376583 17.9127275,5.83333333 16.5833333,5.83333333 L16.125,4.91666667 C18.1456766,4.91666667 19.5742255,5.94756086 20.0425868,7.53712606 C20.4195441,8.81647599 20.1335054,10.2869661 19.0023727,11.4850387 C21.8707409,12.0770829 22.887484,13.8929201 22.9871964,17.0275872 C22.997863,17.3629125 23,17.6301503 23,18.2190583 C23,18.4721888 22.7947972,18.6773916 22.5416667,18.6773916 L20.7083333,18.6773916 L20.7083333,17.760725 L22.0825503,17.760725 C22.0812544,17.4721996 22.0780681,17.2791453 22.0709932,17.0567312 Z"
        fill="currentColor" fill-rule="nonzero"></path>
</svg>