<?xml version="1.0" encoding="UTF-8"?>
<svg width="24px" height="24px" viewBox="0 0 24 24" version="1.1" xmlns="http://www.w3.org/2000/svg" xmlns:xlink="http://www.w3.org/1999/xlink">
    <g transform="translate(0.000000, 1.000000)">
        <rect  fill="currentColor" opacity="0" x="0" y="0" width="24" height="24"></rect>
        <path d="M5.24367187,5.85700781 L6.70279687,5.85700781 L6.70279687,17.5300547 L5.24367187,17.5300547 L5.24367187,5.85700781 Z M8.64832031,8.77525781 L10.1074453,8.77525781 L10.1074453,17.5300547 L8.64832031,17.5300547 L8.64832031,8.77525781 Z M12.0529453,10.7207813 L13.5120703,10.7207813 L13.5120703,17.5300547 L12.0529453,17.5300547 L12.0529453,10.7207813 Z M15.9439687,12.1799063 L17.4030937,12.1799063 L17.4030937,17.5300547 L15.9439687,17.5300547 L15.9439687,12.1799063 Z M22.2668672,10.7207813 L21.2941172,10.7207813 L21.2941172,18.0164297 L20.2858359,18.0164297 L20.2858359,18.9131719 L3.74901562,18.9131719 L3.74901562,18.0164297 L2.81177344,18.0164297 L2.81177344,5.78097656 L3.74901562,5.78097656 L3.74901562,4.88423438 L13.0256953,4.88423438 L13.0256953,3.91148437 L3.74901562,3.91148437 L3.74901562,2.86272656 L0.830742187,2.86272656 L0.830742187,5.781 L1.83902344,5.781 L1.83902344,18.0164531 L0.830742187,18.0164531 L0.830742187,20.9347266 L3.74901562,20.9347266 L3.74901562,19.8859687 L20.2858359,19.8859687 L20.2858359,20.9347266 L23.2041094,20.9347266 L23.2041094,18.0164531 L22.2668672,18.0164531 L22.2668672,10.7208047 L22.2668672,10.7207813 Z M1.76803125,3.79996875 L2.81179687,3.79996875 L2.81179687,4.84373438 L1.76803125,4.84373438 L1.76803125,3.79996875 Z M2.81177344,19.8859219 L1.76800781,19.8859219 L1.76800781,18.8421562 L2.81177344,18.8421562 L2.81177344,19.8859219 Z M22.3378828,19.8859219 L21.2941172,19.8859219 L21.2941172,18.8421562 L22.3378828,18.8421562 L22.3378828,19.8859219 Z M19.7994844,5.85700781 L19.7994844,2.93873438 L18.8267344,2.93873438 L18.8267344,5.85700781 L15.4220859,5.85700781 L15.4220859,6.82975781 L18.8267344,6.82975781 L18.8267344,9.74803125 L19.7994844,9.74803125 L19.7994844,6.82975781 L23.2041328,6.82975781 L23.2041328,5.85700781 L19.7994844,5.85700781 Z" fill="currentColor" fill-rule="nonzero"></path>   
    </g>
</svg>