<?xml version="1.0" encoding="UTF-8"?>
<svg width="14px" height="14px" viewBox="0 0 14 14" version="1.1" xmlns="http://www.w3.org/2000/svg" xmlns:xlink="http://www.w3.org/1999/xlink">
    <rect fill="currentColor" opacity="0" x="0" y="0" width="14" height="14"></rect>
    <path d="M8.84288681,1.93062496 L11.6079267,1.93062496 C11.735337,1.93062496 11.8438892,1.97570861 11.9337186,2.06716013 C12.024021,2.15590799 12.0691047,2.26432503 12.0691047,2.39247882 L12.0691047,5.15677524 C12.0691047,5.28492904 12.024021,5.39334607 11.9337862,5.48351336 C11.8438892,5.57361305 11.735337,5.61869669 11.6079267,5.61869669 C11.480584,5.61869669 11.3720318,5.57361304 11.2821349,5.48351336 C11.1917648,5.39334608 11.146884,5.28492904 11.146884,5.15677524 L11.146884,3.50497007 L7.32295298,7.32808995 C7.2344079,7.41683781 7.12639641,7.46192145 6.99891853,7.46192145 C6.86684441,7.46192145 6.75714313,7.41818965 6.66940915,7.3309288 C6.58167517,7.24218095 6.53814613,7.13234448 6.53814614,7.00141943 C6.53814614,6.87326562 6.5822835,6.76620042 6.67109895,6.67610073 L10.4950975,2.85298085 L8.84248126,2.85298085 C8.71513856,2.85298085 8.60685671,2.8078972 8.51641906,2.71779752 C8.42672491,2.62763024 8.38137091,2.5192132 8.38137091,2.39247882 C8.38137091,2.26432502 8.42672491,2.15590799 8.51641906,2.06580829 C8.60685671,1.9757086 8.71513856,1.93062496 8.84241366,1.93062496 L8.84288681,1.93062496 Z M3.3125366,1.93062496 L6.5384841,1.93062496 C6.6657592,1.93062496 6.77404105,1.97570861 6.8644787,2.06716013 C6.95430803,2.15590799 6.99952685,2.26432503 6.99952685,2.39247882 C6.99952685,2.5192132 6.95424043,2.62769782 6.8644787,2.71779752 C6.77404105,2.80789721 6.6657592,2.85298085 6.5384841,2.85298085 L3.3125366,2.85298085 C3.18532908,2.85298085 3.07664168,2.8979969 2.98694754,2.98816419 C2.89637471,3.07826389 2.85162902,3.18668092 2.85162902,3.31483472 L2.85162902,10.6880041 C2.85162902,10.8147385 2.8963747,10.9231555 2.98694754,11.0132552 C3.07664169,11.1033549 3.18532909,11.1484386 3.3125366,11.1484386 L10.6861116,11.1484386 C10.8133867,11.1484386 10.9216685,11.1033549 11.0121062,11.0132552 C11.1019355,10.9231555 11.1471543,10.8146709 11.1471543,10.6879365 L11.1471543,7.46192145 C11.1471543,7.33518708 11.1924408,7.22677005 11.2822025,7.13667035 C11.3725725,7.04650307 11.4809896,7.00148702 11.6083323,7.00148702 C11.7356074,7.00148702 11.8438892,7.04650307 11.9343269,7.13667035 C12.024021,7.22677005 12.069375,7.33518708 12.069375,7.46192145 L12.069375,10.6880717 C12.069375,11.0696267 11.9343269,11.3949454 11.6643658,11.6653121 C11.3942695,11.9356787 11.0682749,12.0694426 10.6869903,12.0694426 L3.31314492,12.0694426 C2.93138719,12.0694426 2.60593331,11.9356111 2.33570182,11.6652445 C2.06560552,11.3948778 1.93055737,11.0696267 1.93055737,10.6880041 L1.93055737,3.3149023 C1.93055737,2.93327975 2.06560552,2.60802865 2.33570182,2.33766198 C2.6059333,2.06729531 2.93138718,1.93211198 3.31314492,1.93211198 L3.3125366,1.93062496 Z"  fill="currentColor" fill-rule="nonzero"></path>
</svg>