<?xml version="1.0" encoding="UTF-8"?>
<svg width="18px" height="18px" viewBox="0 0 18 18" version="1.1" xmlns="http://www.w3.org/2000/svg" xmlns:xlink="http://www.w3.org/1999/xlink">
    <rect fill="currentColor" opacity="0" x="0" y="1" width="18" height="16.9411765"></rect>
    <path d="M10.252248,8.71965074 L10.2522832,8.71963419 L10.2522832,14.805421 C10.2565547,14.8777022 10.2437578,14.9520018 10.2096211,15.0242831 C10.1242793,15.2049945 9.93654492,15.3114062 9.74028516,15.3114062 C9.66986719,15.3114062 9.5994668,15.2993621 9.53333789,15.2712537 L6.35039648,13.9500901 C6.13492383,13.8938732 5.97707227,13.7071232 5.97707227,13.4862757 L5.97707227,8.68752206 L1.99200586,4.47707721 C1.90239258,4.39075 1.84693359,4.27226103 1.84693359,4.14176103 C1.84693359,3.87472243 2.07518555,3.65988051 2.35893164,3.65988051 L13.7893184,3.65988051 C13.8191836,3.65988051 13.8490488,3.66390074 13.8767871,3.66790441 C14.0026465,3.66591912 14.1285234,3.70605515 14.230916,3.79039706 C14.4421172,3.96708824 14.4613301,4.27227757 14.2735781,4.47105515 L10.252248,8.71965074 Z M9.54186328,8.02094301 L9.54188086,8.02095956 L12.7546699,4.62569301 L3.50240625,4.62569301 L6.70027148,8.00287684 L9.54186328,8.02094301 Z M7.00106836,8.96862316 L7.00106836,13.1670404 L9.22826953,14.0906489 L9.22826953,8.98268566 L7.00106836,8.96862316 Z M11.3999941,9.81793199 C11.3999941,9.55089338 11.6303906,9.33605147 11.9119922,9.33605147 L15.6965273,9.33605147 C15.9802559,9.33605147 16.2085254,9.55089338 16.2085254,9.81793199 C16.2085254,10.0849706 15.9802734,10.2998125 15.6965273,10.2998125 L11.9119922,10.2998125 C11.6282637,10.2998125 11.3999941,10.0849871 11.3999941,9.81793199 Z M15.6965449,11.6029099 C15.9802734,11.6029099 16.208543,11.8197537 16.208543,12.0847904 C16.208543,12.351829 15.980291,12.566671 15.6965449,12.566671 L11.9120098,12.566671 C11.6282812,12.566671 11.4000117,12.351829 11.4000117,12.0847904 C11.4000117,11.8177518 11.6282637,11.6029099 11.9120098,11.6029099 L15.6965449,11.6029099 Z M15.6965449,13.8717868 C15.9802734,13.8717868 16.208543,14.0866287 16.208543,14.3536673 C16.208543,14.6207059 15.980291,14.8355478 15.6965449,14.8355478 L11.9120098,14.8355478 C11.6282812,14.8355478 11.4000117,14.6207059 11.4000117,14.3536673 C11.4000117,14.0866287 11.6282637,13.8717868 11.9120098,13.8717868 L15.6965449,13.8717868 Z" fill="currentColor" fill-rule="nonzero"></path>
</svg>