<?xml version="1.0" encoding="UTF-8"?>
<svg width="14px" height="14px" viewBox="0 0 14 14" version="1.1" xmlns="http://www.w3.org/2000/svg" xmlns:xlink="http://www.w3.org/1999/xlink">
    <!-- Generator: Sketch 52.2 (67145) - http://www.bohemiancoding.com/sketch -->
    <title>接口</title>
    <desc>Created with Sketch.</desc>
    <g id="活动管理" stroke="none" stroke-width="1" fill="none" fill-rule="evenodd">
        <g id="渠道列表_v2.1" transform="translate(-1378.000000, -388.000000)">
            <g id="分组-6" transform="translate(232.000000, 67.000000)">
                <g id="lists" transform="translate(16.000000, 96.000000)">
                    <g id="分组-8" transform="translate(1100.000000, 18.000000)">
                        <g id="编辑" transform="translate(0.000000, 52.000000)">
                            <g id="接口" transform="translate(30.000000, 155.000000)">
                                <g>
                                    <rect id="矩形" fill="#000000" opacity="0" x="0" y="0" width="14" height="14"></rect>
                                    <path d="M0.875,3.06243636 L3.17189091,3.06243636 L3.17189091,3.71865454 C3.17189091,4.07998181 3.43,4.37487273 3.74589091,4.37487273 L5.66045454,4.37487273 C5.97621819,4.37487273 6.23445454,4.07998181 6.23445454,3.71865454 L6.23445454,3.06243636 L13.1251273,3.06243636 C13.3667568,3.06239365 13.5626136,2.86650224 13.5626136,2.62487272 C13.5626136,2.3832432 13.3667568,2.1873518 13.1251273,2.18730909 L6.23432727,2.18730909 L6.23432727,1.53109091 C6.23432727,1.16976364 5.97621819,0.874872729 5.66032727,0.874872729 L3.74589091,0.874872729 C3.43012727,0.874872729 3.17189091,1.16976364 3.17189091,1.53109091 L3.17189091,2.18730909 L0.875,2.18730909 C0.633370482,2.1873518 0.437513703,2.3832432 0.437513703,2.62487272 C0.437513703,2.86650224 0.633370482,3.06239365 0.875,3.06243636 Z M3.93756364,1.75 L5.46878181,1.75 L5.46878181,3.5 L3.93756364,3.5 L3.93756364,1.75 Z M13.125,6.56243636 L10.8281091,6.56243636 L10.8281091,5.90621819 C10.8281091,5.54565454 10.57,5.25 10.2541091,5.25 L8.33954546,5.25 C8.02378181,5.25 7.76554546,5.54578181 7.76554546,5.90621819 L7.76554546,6.56243636 L0.875,6.56243636 C0.63334028,6.56243637 0.437436376,6.75834028 0.437436376,7 C0.437436376,7.24165972 0.63334028,7.43756363 0.875,7.43756364 L7.76567273,7.43756364 L7.76567273,8.09378181 C7.76567273,8.45421817 8.02378181,8.75 8.33967273,8.75 L10.2542364,8.75 C10.57,8.75 10.8282364,8.45421819 10.8282364,8.09378181 L10.8282364,7.43756364 L13.1251273,7.43756364 C13.2814537,7.43754091 13.4258932,7.35412074 13.5040367,7.21872671 C13.5821802,7.08333268 13.582156,6.91653436 13.503973,6.78116307 C13.4257901,6.64579177 13.2813264,6.56241362 13.125,6.56243636 Z M10.0624364,7.875 L8.53121819,7.875 L8.53121819,6.125 L10.0624364,6.125 L10.0624364,7.875 Z M13.125,10.9415091 L13.125,10.9375636 L6.23432727,10.9375636 L6.23432727,10.2813455 C6.23432727,9.9209091 5.97621819,9.62512727 5.66032727,9.62512727 L3.74678181,9.62512727 C3.4308909,9.62512727 3.17278181,9.92090909 3.17278181,10.2813455 L3.17278181,10.9375636 L0.875,10.9375636 L0.875,10.9415091 C0.633370482,10.9415518 0.437513703,11.1374432 0.437513703,11.3790727 C0.437513703,11.6207022 0.633370482,11.8165936 0.875,11.8166364 C0.888490914,11.8166364 0.901218186,11.8139636 0.914454543,11.8126909 L3.17189091,11.8126909 L3.17189091,12.4689091 C3.17189091,12.8293454 3.43,13.1251273 3.74589091,13.1251273 L5.66045454,13.1251273 C5.97621819,13.1251273 6.23445454,12.8293455 6.23445454,12.4689091 L6.23445454,11.8126909 L13.0855455,11.8126909 C13.0987818,11.8139636 13.1115091,11.8166364 13.1251273,11.8166364 C13.2814642,11.8166293 13.42592,11.7332126 13.5040733,11.5978121 C13.5822266,11.4624116 13.5822024,11.2956008 13.5040097,11.1602231 C13.425817,11.0248454 13.2813369,10.9414706 13.125,10.9415091 Z M5.46878181,12.25 L3.93756364,12.25 L3.93756364,10.5 L5.46878181,10.5 L5.46878181,12.25 Z" id="形状" fill="#A1B1C1" fill-rule="nonzero"></path>
                                </g>
                            </g>
                        </g>
                    </g>
                </g>
            </g>
        </g>
    </g>
</svg>