<?xml version="1.0" encoding="UTF-8"?>
<svg width="24px" height="24px" viewBox="0 0 24 24" version="1.1" xmlns="http://www.w3.org/2000/svg" xmlns:xlink="http://www.w3.org/1999/xlink">
    <rect fill="currentColor" opacity="0" x="0" y="0" width="24" height="24"></rect>
    <path d="M11.9385867,13.8377755 C11.8928577,13.7920465 11.7556706,13.7920465 11.7556706,13.8377755 L11.8471286,13.7005885 L11.9385867,13.8377755 Z M12.5330638,14.2950656 C12.2586897,14.7980847 11.6642126,14.8438137 11.2526515,14.4322526 L8.55463989,11.551325 L5.85662827,16.5357871 C5.67371223,16.9016192 5.21642212,17.1759932 4.75913202,17.1759932 L3.37187031,17.1759932 C2.59447714,17.1759932 2,16.5815161 2,15.8041229 L2,4.37187031 C2,3.59447714 2.59447714,3 3.37187031,3 L20.7642857,3 C21.5416789,3 22.136156,3.59447714 22.136156,4.37187031 L22.136156,15.8041229 C22.136156,16.5815161 21.5416789,17.1759932 20.7642857,17.1759932 L12.3501478,17.1759932 L12.3501478,20.377024 L16.4657587,20.377024 C16.7401328,20.377024 16.9230488,20.55994 16.9230488,20.8343141 C16.9230488,21.1086882 16.7401328,21.2916042 16.4657587,21.2916042 L7.3199566,21.2916042 C7.04558254,21.2916042 6.8626665,21.1086882 6.8626665,20.8343141 C6.8626665,20.55994 7.04558254,20.377024 7.3199566,20.377024 L11.4355675,20.377024 L11.4355675,17.1759932 C11.4355675,16.6729741 11.8471286,16.261413 12.3501478,16.261413 L20.8100147,16.261413 C21.0843888,16.261413 21.2673048,16.078497 21.2673048,15.8041229 L21.2673048,4.37187031 C21.2673048,4.14322526 21.0386597,3.91458021 20.8100147,3.91458021 L3.41759932,3.91458021 C3.14322526,3.91458021 2.96030922,4.09749625 2.96030922,4.37187031 L2.96030922,15.8041229 C2.96030922,16.032768 3.18895427,16.261413 3.41759932,16.261413 L4.80486103,16.261413 C4.89631905,16.261413 5.03350608,16.169955 5.07923509,16.124226 L7.86870473,10.9568478 C8.14307879,10.4538287 8.73755593,10.3623707 9.14911702,10.7739318 L11.8471286,13.6548594 L14.0421211,9.85935157 C13.584831,9.35633246 13.310457,8.71612631 13.310457,7.98446214 C13.310457,6.4754048 14.5451403,5.24072151 16.0541976,5.24072151 C17.563255,5.24072151 18.7979382,6.4754048 18.7979382,7.98446214 C18.7979382,9.49351949 17.563255,10.7282028 16.0541976,10.7282028 C15.5511785,10.8196608 15.0938884,10.6824738 14.7280563,10.4995577 L12.5330638,14.2950656 Z M16.0084686,9.90508058 C17.0145068,9.90508058 17.837629,9.08195839 17.837629,8.07592016 C17.837629,7.06988193 17.0145068,6.24675974 16.0084686,6.24675974 C15.0024304,6.24675974 14.1793082,7.06988193 14.1793082,8.07592016 C14.1793082,9.08195839 15.0024304,9.90508058 16.0084686,9.90508058 Z" fill="currentColor" fill-rule="nonzero"></path>
</svg>